<?xml version="1.0" standalone="no"?>
<!DOCTYPE svg PUBLIC "-//W3C//DTD SVG 1.1//EN"
"http://www.w3.org/Graphics/SVG/1.1/DTD/svg11.dtd">
<!-- Creator: fig2dev Version 3.2 Patchlevel 5 -->
<!-- CreationDate: Sun Apr 18 19:49:21 2010 -->
<!-- Magnification: 1.000 -->
<svg xmlns="http://www.w3.org/2000/svg" width="7.3in" height="13.3in" viewBox="1642 963 8716 15994">
<g style="stroke-width:.025in; stroke:black; fill:none">
<!-- Circle -->
<circle cx="10200" cy="16200" r="150"
 style="fill:#000000;stroke:#000000;stroke-width:7;"/>
<!-- Circle -->
<circle cx="9600" cy="16200" r="150"
 style="fill:#000000;stroke:#000000;stroke-width:7;"/>
<!-- Circle -->
<circle cx="9000" cy="16200" r="150"
 style="fill:#000000;stroke:#000000;stroke-width:7;"/>
<!-- Circle -->
<circle cx="8400" cy="16200" r="150"
 style="fill:#000000;stroke:#000000;stroke-width:7;"/>
<!-- Circle -->
<circle cx="7800" cy="16200" r="150"
 style="fill:#000000;stroke:#000000;stroke-width:7;"/>
<!-- Circle -->
<circle cx="7200" cy="16200" r="150"
 style="fill:#000000;stroke:#000000;stroke-width:7;"/>
<!-- Circle -->
<circle cx="6600" cy="16200" r="150"
 style="fill:#000000;stroke:#000000;stroke-width:7;"/>
<!-- Circle -->
<circle cx="6000" cy="16200" r="150"
 style="fill:#000000;stroke:#000000;stroke-width:7;"/>
<!-- Circle -->
<circle cx="5400" cy="16200" r="150"
 style="fill:#000000;stroke:#000000;stroke-width:7;"/>
<!-- Circle -->
<circle cx="4800" cy="16200" r="150"
 style="fill:#000000;stroke:#000000;stroke-width:7;"/>
<!-- Circle -->
<circle cx="4200" cy="16200" r="150"
 style="fill:#000000;stroke:#000000;stroke-width:7;"/>
<!-- Circle -->
<circle cx="3600" cy="16200" r="150"
 style="fill:#000000;stroke:#000000;stroke-width:7;"/>
<!-- Circle -->
<circle cx="3000" cy="16200" r="150"
 style="fill:#000000;stroke:#000000;stroke-width:7;"/>
<!-- Circle -->
<circle cx="2400" cy="16200" r="150"
 style="fill:#000000;stroke:#000000;stroke-width:7;"/>
<!-- Circle -->
<circle cx="1800" cy="16200" r="150"
 style="fill:#000000;stroke:#000000;stroke-width:7;"/>
<!-- Circle -->
<circle cx="1800" cy="16800" r="150"
 style="fill:#000000;stroke:#000000;stroke-width:7;"/>
<!-- Circle -->
<circle cx="2400" cy="16800" r="150"
 style="fill:#000000;stroke:#000000;stroke-width:7;"/>
<!-- Circle -->
<circle cx="3000" cy="16800" r="150"
 style="fill:#000000;stroke:#000000;stroke-width:7;"/>
<!-- Circle -->
<circle cx="3600" cy="16800" r="150"
 style="fill:#000000;stroke:#000000;stroke-width:7;"/>
<!-- Circle -->
<circle cx="4200" cy="16800" r="150"
 style="fill:#000000;stroke:#000000;stroke-width:7;"/>
<!-- Circle -->
<circle cx="4800" cy="16800" r="150"
 style="fill:#000000;stroke:#000000;stroke-width:7;"/>
<!-- Circle -->
<circle cx="5400" cy="16800" r="150"
 style="fill:#000000;stroke:#000000;stroke-width:7;"/>
<!-- Circle -->
<circle cx="6000" cy="16800" r="150"
 style="fill:#000000;stroke:#000000;stroke-width:7;"/>
<!-- Circle -->
<circle cx="6600" cy="16800" r="150"
 style="fill:#000000;stroke:#000000;stroke-width:7;"/>
<!-- Circle -->
<circle cx="7200" cy="16800" r="150"
 style="fill:#000000;stroke:#000000;stroke-width:7;"/>
<!-- Circle -->
<circle cx="7800" cy="16800" r="150"
 style="fill:#000000;stroke:#000000;stroke-width:7;"/>
<!-- Circle -->
<circle cx="8400" cy="16800" r="150"
 style="fill:#000000;stroke:#000000;stroke-width:7;"/>
<!-- Circle -->
<circle cx="9000" cy="16800" r="150"
 style="fill:#000000;stroke:#000000;stroke-width:7;"/>
<!-- Circle -->
<circle cx="9600" cy="16800" r="150"
 style="fill:#000000;stroke:#000000;stroke-width:7;"/>
<!-- Circle -->
<circle cx="10200" cy="13800" r="150"
 style="fill:#000000;stroke:#000000;stroke-width:7;"/>
<!-- Circle -->
<circle cx="9600" cy="13800" r="150"
 style="fill:#000000;stroke:#000000;stroke-width:7;"/>
<!-- Circle -->
<circle cx="9000" cy="13800" r="150"
 style="fill:#000000;stroke:#000000;stroke-width:7;"/>
<!-- Circle -->
<circle cx="8400" cy="13800" r="150"
 style="fill:#000000;stroke:#000000;stroke-width:7;"/>
<!-- Circle -->
<circle cx="7800" cy="13800" r="150"
 style="fill:#000000;stroke:#000000;stroke-width:7;"/>
<!-- Circle -->
<circle cx="7200" cy="13800" r="150"
 style="fill:#000000;stroke:#000000;stroke-width:7;"/>
<!-- Circle -->
<circle cx="6600" cy="13800" r="150"
 style="fill:#000000;stroke:#000000;stroke-width:7;"/>
<!-- Circle -->
<circle cx="6000" cy="13800" r="150"
 style="fill:#000000;stroke:#000000;stroke-width:7;"/>
<!-- Circle -->
<circle cx="5400" cy="13800" r="150"
 style="fill:#000000;stroke:#000000;stroke-width:7;"/>
<!-- Circle -->
<circle cx="4800" cy="13800" r="150"
 style="fill:#000000;stroke:#000000;stroke-width:7;"/>
<!-- Circle -->
<circle cx="4200" cy="13800" r="150"
 style="fill:#000000;stroke:#000000;stroke-width:7;"/>
<!-- Circle -->
<circle cx="3600" cy="13800" r="150"
 style="fill:#000000;stroke:#000000;stroke-width:7;"/>
<!-- Circle -->
<circle cx="3000" cy="13800" r="150"
 style="fill:#000000;stroke:#000000;stroke-width:7;"/>
<!-- Circle -->
<circle cx="2400" cy="13800" r="150"
 style="fill:#000000;stroke:#000000;stroke-width:7;"/>
<!-- Circle -->
<circle cx="1800" cy="13800" r="150"
 style="fill:#000000;stroke:#000000;stroke-width:7;"/>
<!-- Circle -->
<circle cx="2400" cy="14400" r="150"
 style="fill:#000000;stroke:#000000;stroke-width:7;"/>
<!-- Circle -->
<circle cx="3000" cy="14400" r="150"
 style="fill:#000000;stroke:#000000;stroke-width:7;"/>
<!-- Circle -->
<circle cx="3600" cy="14400" r="150"
 style="fill:#000000;stroke:#000000;stroke-width:7;"/>
<!-- Circle -->
<circle cx="4200" cy="14400" r="150"
 style="fill:#000000;stroke:#000000;stroke-width:7;"/>
<!-- Circle -->
<circle cx="4800" cy="14400" r="150"
 style="fill:#000000;stroke:#000000;stroke-width:7;"/>
<!-- Circle -->
<circle cx="5400" cy="14400" r="150"
 style="fill:#000000;stroke:#000000;stroke-width:7;"/>
<!-- Circle -->
<circle cx="6000" cy="14400" r="150"
 style="fill:#000000;stroke:#000000;stroke-width:7;"/>
<!-- Circle -->
<circle cx="6600" cy="14400" r="150"
 style="fill:#000000;stroke:#000000;stroke-width:7;"/>
<!-- Circle -->
<circle cx="7200" cy="14400" r="150"
 style="fill:#000000;stroke:#000000;stroke-width:7;"/>
<!-- Circle -->
<circle cx="7800" cy="14400" r="150"
 style="fill:#000000;stroke:#000000;stroke-width:7;"/>
<!-- Circle -->
<circle cx="8400" cy="14400" r="150"
 style="fill:#000000;stroke:#000000;stroke-width:7;"/>
<!-- Circle -->
<circle cx="9000" cy="14400" r="150"
 style="fill:#000000;stroke:#000000;stroke-width:7;"/>
<!-- Circle -->
<circle cx="9600" cy="14400" r="150"
 style="fill:#000000;stroke:#000000;stroke-width:7;"/>
<!-- Circle -->
<circle cx="9000" cy="15000" r="150"
 style="fill:#000000;stroke:#000000;stroke-width:7;"/>
<!-- Circle -->
<circle cx="8400" cy="15000" r="150"
 style="fill:#000000;stroke:#000000;stroke-width:7;"/>
<!-- Circle -->
<circle cx="7800" cy="15000" r="150"
 style="fill:#000000;stroke:#000000;stroke-width:7;"/>
<!-- Circle -->
<circle cx="7200" cy="15000" r="150"
 style="fill:#000000;stroke:#000000;stroke-width:7;"/>
<!-- Circle -->
<circle cx="6600" cy="15000" r="150"
 style="fill:#000000;stroke:#000000;stroke-width:7;"/>
<!-- Circle -->
<circle cx="6000" cy="15000" r="150"
 style="fill:#000000;stroke:#000000;stroke-width:7;"/>
<!-- Circle -->
<circle cx="5400" cy="15000" r="150"
 style="fill:#000000;stroke:#000000;stroke-width:7;"/>
<!-- Circle -->
<circle cx="4800" cy="15000" r="150"
 style="fill:#000000;stroke:#000000;stroke-width:7;"/>
<!-- Circle -->
<circle cx="4200" cy="15000" r="150"
 style="fill:#000000;stroke:#000000;stroke-width:7;"/>
<!-- Circle -->
<circle cx="3600" cy="15000" r="150"
 style="fill:#000000;stroke:#000000;stroke-width:7;"/>
<!-- Circle -->
<circle cx="3000" cy="15000" r="150"
 style="fill:#000000;stroke:#000000;stroke-width:7;"/>
<!-- Circle -->
<circle cx="2400" cy="15000" r="150"
 style="fill:#000000;stroke:#000000;stroke-width:7;"/>
<!-- Line: box -->
<rect x="8775" y="13575" width="450" height="1050" rx="225" 
style="stroke:#000000;stroke-width:7;
stroke-linejoin:miter; stroke-linecap:butt;
"/>
<!-- Line: box -->
<rect x="8175" y="13575" width="450" height="1650" rx="225" 
style="stroke:#000000;stroke-width:7;
stroke-linejoin:miter; stroke-linecap:butt;
"/>
<!-- Line: box -->
<rect x="7575" y="13575" width="450" height="1650" rx="225" 
style="stroke:#000000;stroke-width:7;
stroke-linejoin:miter; stroke-linecap:butt;
"/>
<!-- Line: box -->
<rect x="6975" y="13575" width="450" height="1650" rx="225" 
style="stroke:#000000;stroke-width:7;
stroke-linejoin:miter; stroke-linecap:butt;
"/>
<!-- Line: box -->
<rect x="6375" y="13575" width="450" height="1650" rx="225" 
style="stroke:#000000;stroke-width:7;
stroke-linejoin:miter; stroke-linecap:butt;
"/>
<!-- Line: box -->
<rect x="5775" y="13575" width="450" height="1650" rx="225" 
style="stroke:#000000;stroke-width:7;
stroke-linejoin:miter; stroke-linecap:butt;
"/>
<!-- Line: box -->
<rect x="5175" y="13575" width="450" height="1650" rx="225" 
style="stroke:#000000;stroke-width:7;
stroke-linejoin:miter; stroke-linecap:butt;
"/>
<!-- Line: box -->
<rect x="4575" y="13575" width="450" height="1650" rx="225" 
style="stroke:#000000;stroke-width:7;
stroke-linejoin:miter; stroke-linecap:butt;
"/>
<!-- Line: box -->
<rect x="3975" y="13575" width="450" height="1650" rx="225" 
style="stroke:#000000;stroke-width:7;
stroke-linejoin:miter; stroke-linecap:butt;
"/>
<!-- Line: box -->
<rect x="3375" y="13575" width="450" height="1650" rx="225" 
style="stroke:#000000;stroke-width:7;
stroke-linejoin:miter; stroke-linecap:butt;
"/>
<!-- Line: box -->
<rect x="2775" y="13575" width="450" height="1650" rx="225" 
style="stroke:#000000;stroke-width:7;
stroke-linejoin:miter; stroke-linecap:butt;
"/>
<!-- Line: box -->
<rect x="2175" y="13575" width="450" height="1650" rx="225" 
style="stroke:#000000;stroke-width:7;
stroke-linejoin:miter; stroke-linecap:butt;
"/>
<!-- Circle -->
<circle cx="10200" cy="10800" r="150"
 style="fill:#000000;stroke:#000000;stroke-width:7;"/>
<!-- Circle -->
<circle cx="9600" cy="10800" r="150"
 style="fill:#000000;stroke:#000000;stroke-width:7;"/>
<!-- Circle -->
<circle cx="9000" cy="10800" r="150"
 style="fill:#000000;stroke:#000000;stroke-width:7;"/>
<!-- Circle -->
<circle cx="8400" cy="10800" r="150"
 style="fill:#000000;stroke:#000000;stroke-width:7;"/>
<!-- Circle -->
<circle cx="7800" cy="10800" r="150"
 style="fill:#000000;stroke:#000000;stroke-width:7;"/>
<!-- Circle -->
<circle cx="7200" cy="10800" r="150"
 style="fill:#000000;stroke:#000000;stroke-width:7;"/>
<!-- Circle -->
<circle cx="6600" cy="10800" r="150"
 style="fill:#000000;stroke:#000000;stroke-width:7;"/>
<!-- Circle -->
<circle cx="6000" cy="10800" r="150"
 style="fill:#000000;stroke:#000000;stroke-width:7;"/>
<!-- Circle -->
<circle cx="5400" cy="10800" r="150"
 style="fill:#000000;stroke:#000000;stroke-width:7;"/>
<!-- Circle -->
<circle cx="4800" cy="10800" r="150"
 style="fill:#000000;stroke:#000000;stroke-width:7;"/>
<!-- Circle -->
<circle cx="4200" cy="10800" r="150"
 style="fill:#000000;stroke:#000000;stroke-width:7;"/>
<!-- Circle -->
<circle cx="3600" cy="10800" r="150"
 style="fill:#000000;stroke:#000000;stroke-width:7;"/>
<!-- Circle -->
<circle cx="3000" cy="10800" r="150"
 style="fill:#000000;stroke:#000000;stroke-width:7;"/>
<!-- Circle -->
<circle cx="2400" cy="10800" r="150"
 style="fill:#000000;stroke:#000000;stroke-width:7;"/>
<!-- Circle -->
<circle cx="1800" cy="10800" r="150"
 style="fill:#000000;stroke:#000000;stroke-width:7;"/>
<!-- Circle -->
<circle cx="2400" cy="11400" r="150"
 style="fill:#000000;stroke:#000000;stroke-width:7;"/>
<!-- Circle -->
<circle cx="3000" cy="11400" r="150"
 style="fill:#000000;stroke:#000000;stroke-width:7;"/>
<!-- Circle -->
<circle cx="3600" cy="11400" r="150"
 style="fill:#000000;stroke:#000000;stroke-width:7;"/>
<!-- Circle -->
<circle cx="4200" cy="11400" r="150"
 style="fill:#000000;stroke:#000000;stroke-width:7;"/>
<!-- Circle -->
<circle cx="4800" cy="11400" r="150"
 style="fill:#000000;stroke:#000000;stroke-width:7;"/>
<!-- Circle -->
<circle cx="5400" cy="11400" r="150"
 style="fill:#000000;stroke:#000000;stroke-width:7;"/>
<!-- Circle -->
<circle cx="6000" cy="11400" r="150"
 style="fill:#000000;stroke:#000000;stroke-width:7;"/>
<!-- Circle -->
<circle cx="6600" cy="11400" r="150"
 style="fill:#000000;stroke:#000000;stroke-width:7;"/>
<!-- Circle -->
<circle cx="7200" cy="11400" r="150"
 style="fill:#000000;stroke:#000000;stroke-width:7;"/>
<!-- Circle -->
<circle cx="7800" cy="11400" r="150"
 style="fill:#000000;stroke:#000000;stroke-width:7;"/>
<!-- Circle -->
<circle cx="8400" cy="11400" r="150"
 style="fill:#000000;stroke:#000000;stroke-width:7;"/>
<!-- Circle -->
<circle cx="9000" cy="11400" r="150"
 style="fill:#000000;stroke:#000000;stroke-width:7;"/>
<!-- Circle -->
<circle cx="9600" cy="11400" r="150"
 style="fill:#000000;stroke:#000000;stroke-width:7;"/>
<!-- Circle -->
<circle cx="9000" cy="12000" r="150"
 style="fill:#000000;stroke:#000000;stroke-width:7;"/>
<!-- Circle -->
<circle cx="8400" cy="12000" r="150"
 style="fill:#000000;stroke:#000000;stroke-width:7;"/>
<!-- Circle -->
<circle cx="7800" cy="12000" r="150"
 style="fill:#000000;stroke:#000000;stroke-width:7;"/>
<!-- Circle -->
<circle cx="7200" cy="12000" r="150"
 style="fill:#000000;stroke:#000000;stroke-width:7;"/>
<!-- Circle -->
<circle cx="6600" cy="12000" r="150"
 style="fill:#000000;stroke:#000000;stroke-width:7;"/>
<!-- Circle -->
<circle cx="6000" cy="12000" r="150"
 style="fill:#000000;stroke:#000000;stroke-width:7;"/>
<!-- Circle -->
<circle cx="5400" cy="12000" r="150"
 style="fill:#000000;stroke:#000000;stroke-width:7;"/>
<!-- Circle -->
<circle cx="4800" cy="12000" r="150"
 style="fill:#000000;stroke:#000000;stroke-width:7;"/>
<!-- Circle -->
<circle cx="4200" cy="12000" r="150"
 style="fill:#000000;stroke:#000000;stroke-width:7;"/>
<!-- Circle -->
<circle cx="3600" cy="12000" r="150"
 style="fill:#000000;stroke:#000000;stroke-width:7;"/>
<!-- Circle -->
<circle cx="3000" cy="12000" r="150"
 style="fill:#000000;stroke:#000000;stroke-width:7;"/>
<!-- Circle -->
<circle cx="3000" cy="12600" r="150"
 style="fill:#000000;stroke:#000000;stroke-width:7;"/>
<!-- Circle -->
<circle cx="3600" cy="12600" r="150"
 style="fill:#000000;stroke:#000000;stroke-width:7;"/>
<!-- Circle -->
<circle cx="4200" cy="12600" r="150"
 style="fill:#000000;stroke:#000000;stroke-width:7;"/>
<!-- Circle -->
<circle cx="4800" cy="12600" r="150"
 style="fill:#000000;stroke:#000000;stroke-width:7;"/>
<!-- Circle -->
<circle cx="5400" cy="12600" r="150"
 style="fill:#000000;stroke:#000000;stroke-width:7;"/>
<!-- Circle -->
<circle cx="6000" cy="12600" r="150"
 style="fill:#000000;stroke:#000000;stroke-width:7;"/>
<!-- Circle -->
<circle cx="6600" cy="12600" r="150"
 style="fill:#000000;stroke:#000000;stroke-width:7;"/>
<!-- Circle -->
<circle cx="7200" cy="12600" r="150"
 style="fill:#000000;stroke:#000000;stroke-width:7;"/>
<!-- Circle -->
<circle cx="7800" cy="12600" r="150"
 style="fill:#000000;stroke:#000000;stroke-width:7;"/>
<!-- Circle -->
<circle cx="8400" cy="12600" r="150"
 style="fill:#000000;stroke:#000000;stroke-width:7;"/>
<!-- Line: box -->
<rect x="8175" y="10575" width="450" height="1050" rx="225" 
style="stroke:#000000;stroke-width:7;
stroke-linejoin:miter; stroke-linecap:butt;
"/>
<!-- Line: box -->
<rect x="7575" y="10575" width="450" height="1650" rx="225" 
style="stroke:#000000;stroke-width:7;
stroke-linejoin:miter; stroke-linecap:butt;
"/>
<!-- Line: box -->
<rect x="6975" y="10575" width="450" height="1650" rx="225" 
style="stroke:#000000;stroke-width:7;
stroke-linejoin:miter; stroke-linecap:butt;
"/>
<!-- Line: box -->
<rect x="6375" y="10575" width="450" height="1650" rx="225" 
style="stroke:#000000;stroke-width:7;
stroke-linejoin:miter; stroke-linecap:butt;
"/>
<!-- Line: box -->
<rect x="5775" y="10575" width="450" height="1650" rx="225" 
style="stroke:#000000;stroke-width:7;
stroke-linejoin:miter; stroke-linecap:butt;
"/>
<!-- Line: box -->
<rect x="5175" y="10575" width="450" height="1650" rx="225" 
style="stroke:#000000;stroke-width:7;
stroke-linejoin:miter; stroke-linecap:butt;
"/>
<!-- Line: box -->
<rect x="4575" y="10575" width="450" height="1650" rx="225" 
style="stroke:#000000;stroke-width:7;
stroke-linejoin:miter; stroke-linecap:butt;
"/>
<!-- Line: box -->
<rect x="3975" y="10575" width="450" height="1650" rx="225" 
style="stroke:#000000;stroke-width:7;
stroke-linejoin:miter; stroke-linecap:butt;
"/>
<!-- Line: box -->
<rect x="3375" y="10575" width="450" height="1650" rx="225" 
style="stroke:#000000;stroke-width:7;
stroke-linejoin:miter; stroke-linecap:butt;
"/>
<!-- Line: box -->
<rect x="2775" y="10575" width="450" height="1650" rx="225" 
style="stroke:#000000;stroke-width:7;
stroke-linejoin:miter; stroke-linecap:butt;
"/>
<!-- Circle -->
<circle cx="10200" cy="6600" r="150"
 style="fill:#000000;stroke:#000000;stroke-width:7;"/>
<!-- Circle -->
<circle cx="9600" cy="6600" r="150"
 style="fill:#000000;stroke:#000000;stroke-width:7;"/>
<!-- Circle -->
<circle cx="9000" cy="6600" r="150"
 style="fill:#000000;stroke:#000000;stroke-width:7;"/>
<!-- Circle -->
<circle cx="8400" cy="6600" r="150"
 style="fill:#000000;stroke:#000000;stroke-width:7;"/>
<!-- Circle -->
<circle cx="7800" cy="6600" r="150"
 style="fill:#000000;stroke:#000000;stroke-width:7;"/>
<!-- Circle -->
<circle cx="7200" cy="6600" r="150"
 style="fill:#000000;stroke:#000000;stroke-width:7;"/>
<!-- Circle -->
<circle cx="6600" cy="6600" r="150"
 style="fill:#000000;stroke:#000000;stroke-width:7;"/>
<!-- Circle -->
<circle cx="6000" cy="6600" r="150"
 style="fill:#000000;stroke:#000000;stroke-width:7;"/>
<!-- Circle -->
<circle cx="5400" cy="6600" r="150"
 style="fill:#000000;stroke:#000000;stroke-width:7;"/>
<!-- Circle -->
<circle cx="4800" cy="6600" r="150"
 style="fill:#000000;stroke:#000000;stroke-width:7;"/>
<!-- Circle -->
<circle cx="4200" cy="6600" r="150"
 style="fill:#000000;stroke:#000000;stroke-width:7;"/>
<!-- Circle -->
<circle cx="3600" cy="6600" r="150"
 style="fill:#000000;stroke:#000000;stroke-width:7;"/>
<!-- Circle -->
<circle cx="3000" cy="6600" r="150"
 style="fill:#000000;stroke:#000000;stroke-width:7;"/>
<!-- Circle -->
<circle cx="2400" cy="6600" r="150"
 style="fill:#000000;stroke:#000000;stroke-width:7;"/>
<!-- Circle -->
<circle cx="1800" cy="6600" r="150"
 style="fill:#000000;stroke:#000000;stroke-width:7;"/>
<!-- Circle -->
<circle cx="2400" cy="7200" r="150"
 style="fill:#000000;stroke:#000000;stroke-width:7;"/>
<!-- Circle -->
<circle cx="3000" cy="7200" r="150"
 style="fill:#000000;stroke:#000000;stroke-width:7;"/>
<!-- Circle -->
<circle cx="3600" cy="7200" r="150"
 style="fill:#000000;stroke:#000000;stroke-width:7;"/>
<!-- Circle -->
<circle cx="4200" cy="7200" r="150"
 style="fill:#000000;stroke:#000000;stroke-width:7;"/>
<!-- Circle -->
<circle cx="4800" cy="7200" r="150"
 style="fill:#000000;stroke:#000000;stroke-width:7;"/>
<!-- Circle -->
<circle cx="5400" cy="7200" r="150"
 style="fill:#000000;stroke:#000000;stroke-width:7;"/>
<!-- Circle -->
<circle cx="6000" cy="7200" r="150"
 style="fill:#000000;stroke:#000000;stroke-width:7;"/>
<!-- Circle -->
<circle cx="6600" cy="7200" r="150"
 style="fill:#000000;stroke:#000000;stroke-width:7;"/>
<!-- Circle -->
<circle cx="7200" cy="7200" r="150"
 style="fill:#000000;stroke:#000000;stroke-width:7;"/>
<!-- Circle -->
<circle cx="7800" cy="7200" r="150"
 style="fill:#000000;stroke:#000000;stroke-width:7;"/>
<!-- Circle -->
<circle cx="8400" cy="7200" r="150"
 style="fill:#000000;stroke:#000000;stroke-width:7;"/>
<!-- Circle -->
<circle cx="9000" cy="7200" r="150"
 style="fill:#000000;stroke:#000000;stroke-width:7;"/>
<!-- Circle -->
<circle cx="9600" cy="7200" r="150"
 style="fill:#000000;stroke:#000000;stroke-width:7;"/>
<!-- Circle -->
<circle cx="9000" cy="7800" r="150"
 style="fill:#000000;stroke:#000000;stroke-width:7;"/>
<!-- Circle -->
<circle cx="8400" cy="7800" r="150"
 style="fill:#000000;stroke:#000000;stroke-width:7;"/>
<!-- Circle -->
<circle cx="7800" cy="7800" r="150"
 style="fill:#000000;stroke:#000000;stroke-width:7;"/>
<!-- Circle -->
<circle cx="7200" cy="7800" r="150"
 style="fill:#000000;stroke:#000000;stroke-width:7;"/>
<!-- Circle -->
<circle cx="6600" cy="7800" r="150"
 style="fill:#000000;stroke:#000000;stroke-width:7;"/>
<!-- Circle -->
<circle cx="6000" cy="7800" r="150"
 style="fill:#000000;stroke:#000000;stroke-width:7;"/>
<!-- Circle -->
<circle cx="5400" cy="7800" r="150"
 style="fill:#000000;stroke:#000000;stroke-width:7;"/>
<!-- Circle -->
<circle cx="4800" cy="7800" r="150"
 style="fill:#000000;stroke:#000000;stroke-width:7;"/>
<!-- Circle -->
<circle cx="4200" cy="7800" r="150"
 style="fill:#000000;stroke:#000000;stroke-width:7;"/>
<!-- Circle -->
<circle cx="3600" cy="7800" r="150"
 style="fill:#000000;stroke:#000000;stroke-width:7;"/>
<!-- Circle -->
<circle cx="3000" cy="7800" r="150"
 style="fill:#000000;stroke:#000000;stroke-width:7;"/>
<!-- Circle -->
<circle cx="3600" cy="8400" r="150"
 style="fill:#000000;stroke:#000000;stroke-width:7;"/>
<!-- Circle -->
<circle cx="4200" cy="8400" r="150"
 style="fill:#000000;stroke:#000000;stroke-width:7;"/>
<!-- Circle -->
<circle cx="4800" cy="8400" r="150"
 style="fill:#000000;stroke:#000000;stroke-width:7;"/>
<!-- Circle -->
<circle cx="5400" cy="8400" r="150"
 style="fill:#000000;stroke:#000000;stroke-width:7;"/>
<!-- Circle -->
<circle cx="6000" cy="8400" r="150"
 style="fill:#000000;stroke:#000000;stroke-width:7;"/>
<!-- Circle -->
<circle cx="6600" cy="8400" r="150"
 style="fill:#000000;stroke:#000000;stroke-width:7;"/>
<!-- Circle -->
<circle cx="7200" cy="8400" r="150"
 style="fill:#000000;stroke:#000000;stroke-width:7;"/>
<!-- Circle -->
<circle cx="7800" cy="8400" r="150"
 style="fill:#000000;stroke:#000000;stroke-width:7;"/>
<!-- Circle -->
<circle cx="8400" cy="8400" r="150"
 style="fill:#000000;stroke:#000000;stroke-width:7;"/>
<!-- Circle -->
<circle cx="7800" cy="9000" r="150"
 style="fill:#000000;stroke:#000000;stroke-width:7;"/>
<!-- Circle -->
<circle cx="7200" cy="9000" r="150"
 style="fill:#000000;stroke:#000000;stroke-width:7;"/>
<!-- Circle -->
<circle cx="6600" cy="9000" r="150"
 style="fill:#000000;stroke:#000000;stroke-width:7;"/>
<!-- Circle -->
<circle cx="6000" cy="9000" r="150"
 style="fill:#000000;stroke:#000000;stroke-width:7;"/>
<!-- Circle -->
<circle cx="5400" cy="9000" r="150"
 style="fill:#000000;stroke:#000000;stroke-width:7;"/>
<!-- Circle -->
<circle cx="4800" cy="9000" r="150"
 style="fill:#000000;stroke:#000000;stroke-width:7;"/>
<!-- Circle -->
<circle cx="4200" cy="9000" r="150"
 style="fill:#000000;stroke:#000000;stroke-width:7;"/>
<!-- Circle -->
<circle cx="4800" cy="9600" r="150"
 style="fill:#000000;stroke:#000000;stroke-width:7;"/>
<!-- Circle -->
<circle cx="5400" cy="9600" r="150"
 style="fill:#000000;stroke:#000000;stroke-width:7;"/>
<!-- Circle -->
<circle cx="6000" cy="9600" r="150"
 style="fill:#000000;stroke:#000000;stroke-width:7;"/>
<!-- Circle -->
<circle cx="6600" cy="9600" r="150"
 style="fill:#000000;stroke:#000000;stroke-width:7;"/>
<!-- Circle -->
<circle cx="7200" cy="9600" r="150"
 style="fill:#000000;stroke:#000000;stroke-width:7;"/>
<!-- Circle -->
<circle cx="4200" cy="9600" r="150"
 style="fill:#000000;stroke:#000000;stroke-width:7;"/>
<!-- Line: box -->
<rect x="7575" y="6375" width="450" height="1050" rx="225" 
style="stroke:#000000;stroke-width:7;
stroke-linejoin:miter; stroke-linecap:butt;
"/>
<!-- Line: box -->
<rect x="6975" y="6375" width="450" height="1650" rx="225" 
style="stroke:#000000;stroke-width:7;
stroke-linejoin:miter; stroke-linecap:butt;
"/>
<!-- Line: box -->
<rect x="6975" y="8175" width="450" height="1050" rx="225" 
style="stroke:#000000;stroke-width:7;
stroke-linejoin:miter; stroke-linecap:butt;
"/>
<!-- Line: box -->
<rect x="6375" y="6375" width="450" height="1650" rx="225" 
style="stroke:#000000;stroke-width:7;
stroke-linejoin:miter; stroke-linecap:butt;
"/>
<!-- Line: box -->
<rect x="6375" y="8175" width="450" height="1650" rx="225" 
style="stroke:#000000;stroke-width:7;
stroke-linejoin:miter; stroke-linecap:butt;
"/>
<!-- Line: box -->
<rect x="5775" y="6375" width="450" height="1650" rx="225" 
style="stroke:#000000;stroke-width:7;
stroke-linejoin:miter; stroke-linecap:butt;
"/>
<!-- Line: box -->
<rect x="5775" y="8175" width="450" height="1650" rx="225" 
style="stroke:#000000;stroke-width:7;
stroke-linejoin:miter; stroke-linecap:butt;
"/>
<!-- Line: box -->
<rect x="5175" y="6375" width="450" height="1650" rx="225" 
style="stroke:#000000;stroke-width:7;
stroke-linejoin:miter; stroke-linecap:butt;
"/>
<!-- Line: box -->
<rect x="5175" y="8175" width="450" height="1650" rx="225" 
style="stroke:#000000;stroke-width:7;
stroke-linejoin:miter; stroke-linecap:butt;
"/>
<!-- Line: box -->
<rect x="4575" y="6375" width="450" height="1650" rx="225" 
style="stroke:#000000;stroke-width:7;
stroke-linejoin:miter; stroke-linecap:butt;
"/>
<!-- Line: box -->
<rect x="4575" y="8175" width="450" height="1650" rx="225" 
style="stroke:#000000;stroke-width:7;
stroke-linejoin:miter; stroke-linecap:butt;
"/>
<!-- Line: box -->
<rect x="3975" y="6375" width="450" height="1650" rx="225" 
style="stroke:#000000;stroke-width:7;
stroke-linejoin:miter; stroke-linecap:butt;
"/>
<!-- Line: box -->
<rect x="3975" y="8175" width="450" height="1650" rx="225" 
style="stroke:#000000;stroke-width:7;
stroke-linejoin:miter; stroke-linecap:butt;
"/>
<!-- Line: box -->
<rect x="3375" y="6375" width="450" height="1650" rx="225" 
style="stroke:#000000;stroke-width:7;
stroke-linejoin:miter; stroke-linecap:butt;
"/>
<!-- Circle -->
<circle cx="7800" cy="1200" r="150"
 style="fill:#000000;stroke:#000000;stroke-width:7;"/>
<!-- Circle -->
<circle cx="7200" cy="1200" r="150"
 style="fill:#000000;stroke:#000000;stroke-width:7;"/>
<!-- Circle -->
<circle cx="6600" cy="1200" r="150"
 style="fill:#000000;stroke:#000000;stroke-width:7;"/>
<!-- Circle -->
<circle cx="6000" cy="1200" r="150"
 style="fill:#000000;stroke:#000000;stroke-width:7;"/>
<!-- Circle -->
<circle cx="5400" cy="1200" r="150"
 style="fill:#000000;stroke:#000000;stroke-width:7;"/>
<!-- Circle -->
<circle cx="4800" cy="1200" r="150"
 style="fill:#000000;stroke:#000000;stroke-width:7;"/>
<!-- Circle -->
<circle cx="4200" cy="1200" r="150"
 style="fill:#000000;stroke:#000000;stroke-width:7;"/>
<!-- Circle -->
<circle cx="3600" cy="1200" r="150"
 style="fill:#000000;stroke:#000000;stroke-width:7;"/>
<!-- Circle -->
<circle cx="3000" cy="1200" r="150"
 style="fill:#000000;stroke:#000000;stroke-width:7;"/>
<!-- Circle -->
<circle cx="8400" cy="1200" r="150"
 style="fill:#000000;stroke:#000000;stroke-width:7;"/>
<!-- Circle -->
<circle cx="9000" cy="1200" r="150"
 style="fill:#000000;stroke:#000000;stroke-width:7;"/>
<!-- Circle -->
<circle cx="9600" cy="1200" r="150"
 style="fill:#000000;stroke:#000000;stroke-width:7;"/>
<!-- Circle -->
<circle cx="10200" cy="1200" r="150"
 style="fill:#000000;stroke:#000000;stroke-width:7;"/>
<!-- Circle -->
<circle cx="2400" cy="1200" r="150"
 style="fill:#000000;stroke:#000000;stroke-width:7;"/>
<!-- Circle -->
<circle cx="1800" cy="1200" r="150"
 style="fill:#000000;stroke:#000000;stroke-width:7;"/>
<!-- Circle -->
<circle cx="9600" cy="1800" r="150"
 style="fill:#000000;stroke:#000000;stroke-width:7;"/>
<!-- Circle -->
<circle cx="9000" cy="1800" r="150"
 style="fill:#000000;stroke:#000000;stroke-width:7;"/>
<!-- Circle -->
<circle cx="8400" cy="1800" r="150"
 style="fill:#000000;stroke:#000000;stroke-width:7;"/>
<!-- Circle -->
<circle cx="7800" cy="1800" r="150"
 style="fill:#000000;stroke:#000000;stroke-width:7;"/>
<!-- Circle -->
<circle cx="7200" cy="1800" r="150"
 style="fill:#000000;stroke:#000000;stroke-width:7;"/>
<!-- Circle -->
<circle cx="6600" cy="1800" r="150"
 style="fill:#000000;stroke:#000000;stroke-width:7;"/>
<!-- Circle -->
<circle cx="6000" cy="1800" r="150"
 style="fill:#000000;stroke:#000000;stroke-width:7;"/>
<!-- Circle -->
<circle cx="5400" cy="1800" r="150"
 style="fill:#000000;stroke:#000000;stroke-width:7;"/>
<!-- Circle -->
<circle cx="4800" cy="1800" r="150"
 style="fill:#000000;stroke:#000000;stroke-width:7;"/>
<!-- Circle -->
<circle cx="4200" cy="1800" r="150"
 style="fill:#000000;stroke:#000000;stroke-width:7;"/>
<!-- Circle -->
<circle cx="3600" cy="1800" r="150"
 style="fill:#000000;stroke:#000000;stroke-width:7;"/>
<!-- Circle -->
<circle cx="3000" cy="1800" r="150"
 style="fill:#000000;stroke:#000000;stroke-width:7;"/>
<!-- Circle -->
<circle cx="2400" cy="1800" r="150"
 style="fill:#000000;stroke:#000000;stroke-width:7;"/>
<!-- Circle -->
<circle cx="3000" cy="2400" r="150"
 style="fill:#000000;stroke:#000000;stroke-width:7;"/>
<!-- Circle -->
<circle cx="3600" cy="2400" r="150"
 style="fill:#000000;stroke:#000000;stroke-width:7;"/>
<!-- Circle -->
<circle cx="4200" cy="2400" r="150"
 style="fill:#000000;stroke:#000000;stroke-width:7;"/>
<!-- Circle -->
<circle cx="4800" cy="2400" r="150"
 style="fill:#000000;stroke:#000000;stroke-width:7;"/>
<!-- Circle -->
<circle cx="5400" cy="2400" r="150"
 style="fill:#000000;stroke:#000000;stroke-width:7;"/>
<!-- Circle -->
<circle cx="6000" cy="2400" r="150"
 style="fill:#000000;stroke:#000000;stroke-width:7;"/>
<!-- Circle -->
<circle cx="6600" cy="2400" r="150"
 style="fill:#000000;stroke:#000000;stroke-width:7;"/>
<!-- Circle -->
<circle cx="7200" cy="2400" r="150"
 style="fill:#000000;stroke:#000000;stroke-width:7;"/>
<!-- Circle -->
<circle cx="7800" cy="2400" r="150"
 style="fill:#000000;stroke:#000000;stroke-width:7;"/>
<!-- Circle -->
<circle cx="8400" cy="2400" r="150"
 style="fill:#000000;stroke:#000000;stroke-width:7;"/>
<!-- Circle -->
<circle cx="9000" cy="2400" r="150"
 style="fill:#000000;stroke:#000000;stroke-width:7;"/>
<!-- Circle -->
<circle cx="8400" cy="3000" r="150"
 style="fill:#000000;stroke:#000000;stroke-width:7;"/>
<!-- Circle -->
<circle cx="7800" cy="3000" r="150"
 style="fill:#000000;stroke:#000000;stroke-width:7;"/>
<!-- Circle -->
<circle cx="7200" cy="3000" r="150"
 style="fill:#000000;stroke:#000000;stroke-width:7;"/>
<!-- Circle -->
<circle cx="6600" cy="3000" r="150"
 style="fill:#000000;stroke:#000000;stroke-width:7;"/>
<!-- Circle -->
<circle cx="6000" cy="3000" r="150"
 style="fill:#000000;stroke:#000000;stroke-width:7;"/>
<!-- Circle -->
<circle cx="5400" cy="3000" r="150"
 style="fill:#000000;stroke:#000000;stroke-width:7;"/>
<!-- Circle -->
<circle cx="4800" cy="3000" r="150"
 style="fill:#000000;stroke:#000000;stroke-width:7;"/>
<!-- Circle -->
<circle cx="4200" cy="3000" r="150"
 style="fill:#000000;stroke:#000000;stroke-width:7;"/>
<!-- Circle -->
<circle cx="3600" cy="3000" r="150"
 style="fill:#000000;stroke:#000000;stroke-width:7;"/>
<!-- Circle -->
<circle cx="4200" cy="3600" r="150"
 style="fill:#000000;stroke:#000000;stroke-width:7;"/>
<!-- Circle -->
<circle cx="4800" cy="3600" r="150"
 style="fill:#000000;stroke:#000000;stroke-width:7;"/>
<!-- Circle -->
<circle cx="5400" cy="3600" r="150"
 style="fill:#000000;stroke:#000000;stroke-width:7;"/>
<!-- Circle -->
<circle cx="6000" cy="3600" r="150"
 style="fill:#000000;stroke:#000000;stroke-width:7;"/>
<!-- Circle -->
<circle cx="6600" cy="3600" r="150"
 style="fill:#000000;stroke:#000000;stroke-width:7;"/>
<!-- Circle -->
<circle cx="7200" cy="3600" r="150"
 style="fill:#000000;stroke:#000000;stroke-width:7;"/>
<!-- Circle -->
<circle cx="7800" cy="3600" r="150"
 style="fill:#000000;stroke:#000000;stroke-width:7;"/>
<!-- Circle -->
<circle cx="7200" cy="4200" r="150"
 style="fill:#000000;stroke:#000000;stroke-width:7;"/>
<!-- Circle -->
<circle cx="6600" cy="4200" r="150"
 style="fill:#000000;stroke:#000000;stroke-width:7;"/>
<!-- Circle -->
<circle cx="6000" cy="4200" r="150"
 style="fill:#000000;stroke:#000000;stroke-width:7;"/>
<!-- Circle -->
<circle cx="5400" cy="4200" r="150"
 style="fill:#000000;stroke:#000000;stroke-width:7;"/>
<!-- Circle -->
<circle cx="4800" cy="4200" r="150"
 style="fill:#000000;stroke:#000000;stroke-width:7;"/>
<!-- Circle -->
<circle cx="5400" cy="4800" r="150"
 style="fill:#000000;stroke:#000000;stroke-width:7;"/>
<!-- Circle -->
<circle cx="6000" cy="4800" r="150"
 style="fill:#000000;stroke:#000000;stroke-width:7;"/>
<!-- Circle -->
<circle cx="6600" cy="4800" r="150"
 style="fill:#000000;stroke:#000000;stroke-width:7;"/>
<!-- Circle -->
<circle cx="6000" cy="5400" r="150"
 style="fill:#000000;stroke:#000000;stroke-width:7;"/>
<!-- Line: box -->
<rect x="6375" y="975" width="450" height="1050" rx="225" 
style="stroke:#000000;stroke-width:7;
stroke-linejoin:miter; stroke-linecap:butt;
"/>
<!-- Line: box -->
<rect x="5775" y="975" width="450" height="1650" rx="225" 
style="stroke:#000000;stroke-width:7;
stroke-linejoin:miter; stroke-linecap:butt;
"/>
<!-- Line: box -->
<rect x="5775" y="2775" width="450" height="1050" rx="225" 
style="stroke:#000000;stroke-width:7;
stroke-linejoin:miter; stroke-linecap:butt;
"/>
<!-- Line: box -->
<rect x="5175" y="975" width="450" height="1650" rx="225" 
style="stroke:#000000;stroke-width:7;
stroke-linejoin:miter; stroke-linecap:butt;
"/>
<!-- Line: box -->
<rect x="5175" y="2775" width="450" height="1050" rx="225" 
style="stroke:#000000;stroke-width:7;
stroke-linejoin:miter; stroke-linecap:butt;
"/>
<!-- Line: box -->
<rect x="4575" y="975" width="450" height="1650" rx="225" 
style="stroke:#000000;stroke-width:7;
stroke-linejoin:miter; stroke-linecap:butt;
"/>
</g>
</svg>
